<svg width="666" height="132" viewBox="0 0 666 132" fill="none" xmlns="http://www.w3.org/2000/svg">
<path d="M231.198 1.87891V21.9067H204.67V1.87891H231.198ZM206.426 40.1777H229.265V127.492H206.426V40.1777Z" fill="#000000"/>
<path d="M380.74 5.04119H403.579V127.492H380.74V5.04119ZM477.19 40.1777L425.188 86.0308L425.715 71.9762L481.231 127.492H452.243L404.106 78.4764L446.094 40.1777H477.19Z" fill="#000000"/>
<path d="M567.687 98.5042H589.823C588.886 104.477 586.368 109.806 582.268 114.491C578.286 119.176 572.84 122.865 565.93 125.559C559.02 128.253 550.587 129.6 540.632 129.6C529.505 129.6 519.667 127.843 511.117 124.33C502.567 120.699 495.891 115.487 491.089 108.694C486.287 101.901 483.886 93.7022 483.886 84.0983C483.886 74.4943 486.229 66.2958 490.914 59.5027C495.599 52.5925 502.099 47.3221 510.414 43.6913C518.847 40.0605 528.685 38.2452 539.929 38.2452C551.407 38.2452 560.952 40.0605 568.565 43.6913C576.178 47.3221 581.8 52.8268 585.431 60.2054C589.179 67.467 590.76 76.7782 590.174 88.1389H506.901C507.486 92.5896 509.126 96.6303 511.82 100.261C514.631 103.892 518.379 106.761 523.064 108.869C527.866 110.978 533.546 112.032 540.105 112.032C547.366 112.032 553.398 110.802 558.2 108.342C563.119 105.766 566.281 102.486 567.687 98.5042ZM538.875 55.6377C530.442 55.6377 523.591 57.5117 518.32 61.2595C513.05 64.8903 509.653 69.3995 508.131 74.7871H567.511C566.926 68.931 564.115 64.3047 559.078 60.9082C554.159 57.3945 547.425 55.6377 538.875 55.6377Z" fill="#000000"/>
<path d="M607.169 40.1777H630.007V127.492H607.169V40.1777ZM663.563 58.9757C657.004 58.9757 651.323 60.264 646.522 62.8407C641.72 65.3002 637.855 68.3454 634.926 71.9762C631.998 75.6069 629.949 79.1206 628.778 82.5171L628.602 72.8546C628.719 71.4491 629.188 69.3995 630.007 66.7057C630.827 63.8948 632.057 60.9082 633.697 57.7459C635.336 54.4665 637.503 51.3628 640.197 48.4347C642.891 45.3896 646.17 42.93 650.035 41.0561C653.9 39.1821 658.409 38.2452 663.563 38.2452V58.9757Z" fill="#000000"/>
<path d="M361.378 86.0308C360.792 93.6437 358.333 100.202 353.999 105.707C349.783 111.212 343.927 115.428 336.431 118.356C328.935 121.167 320.034 122.573 309.727 122.573C298.952 122.573 289.29 120.874 280.74 117.478C272.307 113.964 265.631 108.869 260.712 102.194C255.91 95.4005 253.509 87.0263 253.509 77.071C253.509 67.1156 255.91 58.7414 260.712 51.9484C265.631 45.1553 272.307 40.002 280.74 36.4883C289.29 32.9747 298.952 31.2179 309.727 31.2179C320.034 31.2179 328.877 32.6819 336.256 35.6099C343.634 38.4208 349.432 42.5201 353.648 47.9077C357.982 53.2953 360.5 59.7955 361.202 67.4084H340.296C338.305 61.5524 334.616 56.9846 329.228 53.7052C323.841 50.4258 317.34 48.7861 309.727 48.7861C303.637 48.7861 298.074 49.8402 293.038 51.9484C288.119 54.0566 284.136 57.2189 281.091 61.4352C278.163 65.5345 276.699 70.7464 276.699 77.071C276.699 83.2784 278.163 88.4903 281.091 92.7067C284.019 96.8059 288.001 99.9097 293.038 102.018C298.074 104.009 303.637 105.004 309.727 105.004C317.926 105.004 324.602 103.365 329.755 100.085C335.026 96.8059 338.598 92.1211 340.472 86.0308H361.378Z" fill="#000000"/>
<path d="M308.673 95.869V57.2189M289.348 76.5439H327.998M250.698 27.3529H271.78M252.455 25.596V46.6779M363.135 27.3529H342.053M361.378 25.596V46.6779M363.135 125.735H342.053M361.378 127.492V106.41M250.698 125.735H271.78M252.455 127.492V106.41M231.198 1.87891V21.9067H204.67V1.87891H231.198ZM206.426 40.1777H229.265V127.492H206.426V40.1777ZM380.74 5.04119H403.579V127.492H380.74V5.04119ZM477.19 40.1777L425.188 86.0308L425.715 71.9762L481.231 127.492H452.243L404.106 78.4764L446.094 40.1777H477.19ZM567.687 98.5042H589.823C588.886 104.477 586.368 109.806 582.268 114.491C578.286 119.176 572.84 122.865 565.93 125.559C559.02 128.253 550.587 129.6 540.632 129.6C529.505 129.6 519.667 127.843 511.117 124.33C502.567 120.699 495.891 115.487 491.089 108.694C486.287 101.901 483.886 93.7022 483.886 84.0983C483.886 74.4943 486.229 66.2958 490.914 59.5027C495.599 52.5925 502.099 47.3221 510.414 43.6913C518.847 40.0605 528.685 38.2452 539.929 38.2452C551.407 38.2452 560.952 40.0605 568.565 43.6913C576.178 47.3221 581.8 52.8268 585.431 60.2054C589.179 67.467 590.76 76.7782 590.174 88.1389H506.901C507.486 92.5896 509.126 96.6303 511.82 100.261C514.631 103.892 518.379 106.761 523.064 108.869C527.866 110.978 533.546 112.032 540.105 112.032C547.366 112.032 553.398 110.802 558.2 108.342C563.119 105.766 566.281 102.486 567.687 98.5042ZM538.875 55.6377C530.442 55.6377 523.591 57.5117 518.32 61.2595C513.05 64.8903 509.653 69.3995 508.131 74.7871H567.511C566.926 68.931 564.115 64.3047 559.078 60.9082C554.159 57.3945 547.425 55.6377 538.875 55.6377ZM607.169 40.1777H630.007V127.492H607.169V40.1777ZM663.563 58.9757C657.004 58.9757 651.323 60.264 646.522 62.8407C641.72 65.3002 637.855 68.3454 634.926 71.9762C631.998 75.6069 629.949 79.1206 628.778 82.5171L628.602 72.8546C628.719 71.4491 629.188 69.3995 630.007 66.7057C630.827 63.8948 632.057 60.9082 633.697 57.7459C635.336 54.4665 637.503 51.3628 640.197 48.4347C642.891 45.3896 646.17 42.93 650.035 41.0561C653.9 39.1821 658.409 38.2452 663.563 38.2452V58.9757ZM361.378 86.0308C360.792 93.6437 358.333 100.202 353.999 105.707C349.783 111.212 343.927 115.428 336.431 118.356C328.935 121.167 320.034 122.573 309.727 122.573C298.952 122.573 289.29 120.874 280.74 117.478C272.307 113.964 265.631 108.869 260.712 102.194C255.91 95.4005 253.509 87.0263 253.509 77.071C253.509 67.1156 255.91 58.7414 260.712 51.9484C265.631 45.1553 272.307 40.002 280.74 36.4883C289.29 32.9747 298.952 31.2179 309.727 31.2179C320.034 31.2179 328.877 32.6819 336.256 35.6099C343.634 38.4208 349.432 42.5201 353.648 47.9077C357.982 53.2953 360.5 59.7955 361.202 67.4084H340.296C338.305 61.5524 334.616 56.9846 329.228 53.7052C323.841 50.4258 317.34 48.7861 309.727 48.7861C303.637 48.7861 298.074 49.8402 293.038 51.9484C288.119 54.0566 284.136 57.2189 281.091 61.4352C278.163 65.5345 276.699 70.7464 276.699 77.071C276.699 83.2784 278.163 88.4903 281.091 92.7067C284.019 96.8059 288.001 99.9097 293.038 102.018C298.074 104.009 303.637 105.004 309.727 105.004C317.926 105.004 324.602 103.365 329.755 100.085C335.026 96.8059 338.598 92.1211 340.472 86.0308H361.378Z" stroke="#000000" stroke-width="3"/>
<path d="M136.857 83.0436C135.802 92.1791 132.582 99.9677 127.194 106.409C121.806 112.851 114.486 117.77 105.234 121.167C95.9811 124.563 84.9717 126.261 72.2054 126.261C61.5474 126.261 51.7677 125.032 42.8665 122.572C34.0824 120.113 26.4695 116.423 20.0278 111.504C13.7032 106.585 8.78412 100.495 5.27047 93.2332C1.75682 85.8545 0 77.2461 0 67.4079C0 57.5697 1.75682 48.9613 5.27047 41.5826C8.78412 34.2039 13.7032 28.0551 20.0278 23.136C26.4695 18.0997 34.0824 14.3518 42.8665 11.8923C51.7677 9.31562 61.5474 8.02729 72.2054 8.02729C84.9717 8.02729 95.9811 9.78411 105.234 13.2977C114.603 16.8114 121.982 21.8476 127.37 28.4064C132.757 34.8481 135.92 42.6953 136.857 51.9479H113.666C112.144 47.0287 109.567 42.8124 105.936 39.2987C102.423 35.668 97.8551 32.9156 92.2332 31.0417C86.6114 29.1677 79.9355 28.2307 72.2054 28.2307C62.6015 28.2307 54.1687 29.7533 46.9072 32.7985C39.6456 35.7265 34.0238 40.1186 30.0417 45.9747C26.0595 51.7136 24.0685 58.858 24.0685 67.4079C24.0685 75.8406 26.0595 82.9265 30.0417 88.6654C34.0238 94.4044 39.6456 98.7965 46.9072 101.842C54.1687 104.77 62.6015 106.234 72.2054 106.234C79.9355 106.234 86.5528 105.297 92.0575 103.423C97.6794 101.549 102.247 98.855 105.761 95.3414C109.392 91.8277 112.027 87.7285 113.666 83.0436H136.857Z" fill="#000000"/>
<path d="M183.939 1L183.939 127.491H159.344L159.344 1L183.939 1Z" fill="#000000"/>
<path d="M176.912 6.27215V16.8131L166.371 16.8131V6.27215L176.912 6.27215Z" fill="white"/>
<path d="M176.912 27.354V37.895H166.371V27.354L176.912 27.354Z" fill="white"/>
<path d="M176.912 48.4359V58.9768H166.371V48.4359H176.912Z" fill="white"/>
<path d="M176.912 69.5178V80.0587H166.371L166.371 69.5178H176.912Z" fill="white"/>
<path d="M176.912 90.5996V101.141H166.371V90.5996H176.912Z" fill="white"/>
<path d="M176.912 111.682V122.222H166.371V111.682H176.912Z" fill="white"/>
</svg>
